<svg id="Layer_1" data-name="Layer 1" xmlns="http://www.w3.org/2000/svg" viewBox="0 0 1000 197.18"><defs><style>.cls-1{fill:#413c57;}</style></defs><g id="logo"><path class="cls-1" d="M277.6,18.16c1.52,3.27,3,8.88,5.23,11.71a21.61,21.61,0,0,1,3.48,8.72c4.14,15.89,8.28,36.11,12.2,52,1.09,5,2.17,10,3.92,15.9,1.74-5,2.18-9.37,2.83-13.72,1.09-6.76,1.52-13.51,2.83-20,1.31-7.41,2.61-14.81,4.36-22,1.3-6.1,2.17-14.57,5-20.23,1.52-2.83,3.92-5.23,7-4.57L329.65,27a6.4,6.4,0,0,1,3.27,1.52c2.61,2.61,3.05,2.4,4.57-1.31,0-.21.22-.21.66-.65,1.09.44,2,2,3.48.65.65-.65,2-.21,3.05.22.65.22,1.09.87,1.74,1.09,7.63,2.4,8.06,9.78,8.28,16.09,0,.87-.22,1.75-.22,2.4,1.09,11.32-.87,22.65-1.09,33.76,0,8.93.22,18.08,1.09,27,.87,7.41.87,15.25,1.74,22.66,1.09,9.8.22,23.44.66,33.25.22,4.13,1.09,19.59.87,23.73-.44,4.58-2.4,6.32-7.19,5.23-1.09.65-.65,1.74-.87,2.61-.87,1.75-2.18,2.18-4.14,1.75-4.79-.66-8.06-3.49-11.76-5.89-4.36-2.83-5.23-18.07-5.23-22.21-.21-6.31-.65-16.26,0-22.57a49,49,0,0,0-.43-11.33C326.82,121.31,327,107.8,326,94.08c-1.09-12.85-.87-25.7-2.61-38.55l-.66-1.74a24.48,24.48,0,0,0-3.05,7.62c-1.52,5.45-3.7,10.89-4.79,16.34-2.18,11.11-4.79,22-4.79,33.32,0,2.4-.65,4.79-.87,7.41-.44,3.7-2.18,7.4-.65,11.11,1.3,3.7-1.75,5.66-3.27,8-.44.87-1.53.44-2.18,0-1.31-.43-2.61-1.3-4.14-1.09-.43,1.53-.43,2.84,1.74,2.84,2.18.21,2.84,3.26,3.93,4.57-.88,1.31-1.75,1.09-3.05,1.31-3.71.43-8.06.21-9.37-1.53-1.74-2.18-2.18-2-4.57-3.26-3.71-2.18-6.1-5.89-7.63-9.81-5.22-13.28-10.23-26.79-14.15-40.51-2-7.4-3.92-17.16-6.1-24.57a59.13,59.13,0,0,0-2.4-7.4c.87,4.35-1.3,8.49-.43,12.85.87,5.22,0,12.59.21,18,.44,8.72.22,17.86.88,26.58.65,7.62,1.08,15.24,2.17,22.65.66,4.35,1.31,8.71.88,13.06a224.87,224.87,0,0,0-.44,24.35,4.32,4.32,0,0,1-.44,3.27c-1.74,2.39-3.26,2.83-6.53,1.09-.87.43-.65,1.74-2,2-.22-.44-.87-.66-.87-1.31l-.65-13.48.43-26.55a160.77,160.77,0,0,0-1.09-22.87,415.77,415.77,0,0,1-1.3-49.4c.21-11.1-.22-24.39,0-35.71a42.1,42.1,0,0,0-.22-7.36c-.22-1.74.87-2.62,2.39-3.27a10.15,10.15,0,0,1,7.19.22c1.52-.65,1.52-2.18,2.4-3.05,3.05-3.05,3.48-3.48,7.62-1.74,2.39.87,5,2,6.1,5a1.21,1.21,0,0,0,1.52.65c.44-2-.43-4.14.66-5.88C276.94,17.07,277.38,17.51,277.6,18.16Zm62.29,62c2-4.35,1.74-11.54-.44-14.15C337.28,71,339.67,75.13,339.89,80.14Z"/><path class="cls-1" d="M416.51,21.34c1.09,1.74-1.53,1.74-2,3.48,5.44-.87,10.45-1.09,15.24.66,7.63,3.26,13.94,7.62,17,15.9a37.47,37.47,0,0,0,3.7,6.31,52.54,52.54,0,0,1,7.63,24.61c.22,7.63.65,15.25.43,22.87-.21,8.06-.21,16.34-.87,24.61-.22,5.45-1.74,10.89-3.27,16.12-2,7-5,13.5-6.53,20.69a34.24,34.24,0,0,1-7.62,16.34c-1.31,1.52-3.05,2.18-4.58,3.26-2.83,2.62-6.31,4.58-10.45,4.58a5.3,5.3,0,0,0-4.14,1.3c-1.74,1.75-3.27,1.09-4.79.22-1.31-.87-2.61-1.74-2-3.92.22-1.09-.65-2-1.53-3.26-1.08,1.74-2.83,2-4.57,2a36.56,36.56,0,0,0-4.79.21c-4.36.87-7.41-1.09-10-3.92a18.59,18.59,0,0,1-3.05-3.92c-1.74-2.61-2.83-5.88-7.19-6.1,1.53-1.52,2.18-2.39.66-3.7-6.32-5-7.63-12.2-8.28-19.82-.87-10.45-1.52-21.12-2.18-31.58a69.59,69.59,0,0,1,0-9.36l1.09-22.44a102,102,0,0,1,7.41-32.23,39.29,39.29,0,0,1,10.89-15c2.18-1.74,5.22-3.05,7.84-4.57,2.18-1.53,4.14-3.49,7-2.62.65.22,1.52-.43,2.39-.87.66-.22,1.31-.65,2.18-.87C413.89,19.81,415.64,19.81,416.51,21.34Zm-8.28,14.37c-2.83,2.83-5.44,6.32-6.53,10A36.17,36.17,0,0,0,399.3,61c.44,2.61,1.09,5,.87,7.62-.43,7.19-.22,14.38-.65,21.56-.65,8.28,0,16.56.22,24.83.43,8.28,1.09,16.55,1.74,24.61.43,4.36.43,8.72,3.27,12.42,1.52,2.18,3.7,6.1,5.88,8.71-4.14-.22-5.45-5-8.28-6.1a47.11,47.11,0,0,1,2.18,4.79,14.47,14.47,0,0,0,2,3.05c.65.87,1.31,2.4,2.61,2.18,2.62-.22,3.7,1.53,4.79,3.27.66,1.09,1.53,2.39,3.05,2.18,3.49,0,8.06-4.14,8.28-7.63.44-5.66,2-11.32,2.83-16.77,1.31-7.84,2.83-15.24,3.27-23.08.43-8.72.87-17.43,1.74-26.14.87-11.54,3.05-23.31,1.31-35.07-1.09-7.4-2.18-15-5.23-22a8.65,8.65,0,0,0-6.53-5.67,23.88,23.88,0,0,0-6.76-.65C413,33.1,410.19,33.75,408.23,35.71Z"/><path class="cls-1" d="M509.9,27c.65,3.05,3.26,4.79,4.35,7.84,2.83,8.5,3.27,17.43,6.54,25.92,4.79,13.07,8.27,26.79,13.06,39.86,1.75,5,2.84,10.23,4.36,15.24,2.4,8.5,5,17,7.4,25.49.22.43.44,1.08,1.09,1.08,1.09-10.67,1.09-33.1-1.09-44-1.08,1.53-.21,3-.43,4.58s.22,3.26-.22,4.79c-1.52-.44-1.31-1.53-1.31-2.4,0-5.44-.21.43-.65-5.23,0-3.27.65-19.57.65-23.06,0-4.35-.43-9.77-.65-13.91-.43-4.36-.65-15.12-.43-19.48.43-10.46.65-20.48.21-30.93,0-2,1.31-3.27,2.18-4.58.44-.65,1.53-.65,2.18-.65,2,.22,6.1,3.7,6.32,5.66.21,6.54,2,15.42,1.52,22.17s0,17.35-.22,24.32c0,5.23.66,11.74.22,17.18-.43,9.59.22,20.45,0,30.26,0,5.88,1.53,23.51,2,29.61.44,7.63,2.18,15,2.61,22.65,0,2.18.66,5-.65,5.88-2.83,2-1.09,3.92-1.09,5.89,0,1.08.22,1.95.22,3a6.26,6.26,0,0,1-3.92,6.32,1.62,1.62,0,0,1-2.4-.87c-1.3-1.74-2.83-1.53-4.57-1.74-4.14-.66-8.28.65-12-1.53-2.61,1.31-4.57-1.09-7-1.3-2.83-.22-3.92-2-4.57-4.36-1.53-5.45-3.27-10.67-4.58-16.12-2-8.49-5-16.33-7-24.83-2.39-11.54-6.31-22.65-9.8-34A231.8,231.8,0,0,1,495.09,69c-.88-5.45-2.4-10.89-3.49-16.34-1.52.44-1.09,1.31-1.09,1.74-.43,18.08-.87,35.94-.87,54,0,12.85,1.31,32.11,1.52,45.18.22,7.19,1.53,9.24,2,16.43a120.58,120.58,0,0,1,.21,12.63c-3-1.3-4.79-3.7-7.84-4.35-1.09-.22-1.74-1.74-1.52-3a12.11,12.11,0,0,0-1.53-5.45,8.67,8.67,0,0,1-1.09-4.79c-.87-10.24-.87-12.78-1.3-23.23-.22-2.83,0-5.88-.87-8.93a8.73,8.73,0,0,1,0-2.4c.87-12.41-.66-34-.44-46.44C479,69.91,479,56,479,41.81c0-2.83-.22-5.88-.44-8.93,0-1.74,0-2.61,2.4-3.27,3.05-.65,5.88-1.52,8.93-.21,1.09.43,2.61-.22,3.48-.66,5-2.39,10.24-1.74,15.25-2.39C509,26.35,509.9,26.57,509.9,27Zm39.2,144.84c-.87-1.74-1.09-3.71-3.7-3.49C545.18,172.27,545.18,172.27,549.1,171.84Z"/><path class="cls-1" d="M576.28,155.5c-3.27,1.31-4.36-2.61-5.23-4.57C574.32,151.15,574.75,153.76,576.28,155.5ZM630.07,23.3c4.8,1.31,8.28,3.92,9.8,9.15l3.92,12.41c1.31,3.49,0,6.75-.43,10-.22,1.52-2.4,1.52-3.27,3-.87,2.18-2.39,4.14-3.48,6.31-1.31-.43-1.09-1.95-2-2.61-1.53.44-.66,2.4-2,3.05-.22.22-.44.22-.66-.22-3.48-4.57-5.44-9.58-4.35-15.46a17.8,17.8,0,0,0-.66-8.93c-1.09-4.14-6.75-9.15-10.67-7.62-2.18.65-4.35,1.74-6.53,2.61-2.4,1.09-3.7,3.48-4.79,5.66s-2,6.1-3.27,8.06c-2.18,2.4-2.18,8.71.43,10.67,6.54,5.45,10.89,12.64,15.9,19,3.92,5.23,8.72,9.37,13.51,13.51a73,73,0,0,1,10.67,12.41,31.29,31.29,0,0,0,4.14,5.23c5.23,5,5,12,7,18.51,1.3,4.57.87,9.37,1.09,14.16,0,2.18-.22,4.57-2.62,5.88-1.3.65-1.09,1.74-1.3,2.83A45.28,45.28,0,0,1,644,166.61c-1.3,2-3,3.7-5.44,3.92a4.55,4.55,0,0,0-2.4,1.53c-2.18,2.83-5.44,4.57-8.49,6.09-.87.44-1.75,1.09-2.62.66-2.61-1.09-4.79,0-7,1.09-6.53,3.7-17.42.87-26.79-4.79-.87-.66-13.72-12.86-14.15-13.51-4.58-6.31,7,5.23,2.61-1.52-.87-1.53-2-4.14-1.74-6.1,0-2.62-2.18-3.92-3.27-5.88-.43-.87-1.52-1.31-1.74-2.62.87-.65,3-1.74,4.36-.43,1.74,2,2.17.87,3.48,1.52,1.31.87,1.52,1.31,3.27,2.62,2.39,2,2.83,3.92,4.35,5.66,2.18,3.05,4.58,3.7,7.84,5.23,7.63,3,15.25,9.58,22,2.61,4.14-4.36,5-8.93,5-14.37a78.42,78.42,0,0,0-2.61-16.12,7.52,7.52,0,0,0-1.53-3.27c-8.27-11.54-15-21.34-25.48-30.49-5.44-4.36-12-12-13.94-18.73-.87-3.49-3-6.54-3.48-10a12.34,12.34,0,0,1,.21-5.66c1.75-6.1,2.62-12.64,5-18.52,3.27-8.49,9.15-14.59,16.56-19.6a9.65,9.65,0,0,1,7.4-1.52c3.92.65,7.62-.87,11.55-1.31A43.66,43.66,0,0,1,630.07,23.3Zm-23.3,78c.65-.22-1.74-4.79-3.27-6.53-2.18-3-4.57-3.92-5-5.45-3-2-5.44-4.79-8.93-5.66C593.48,90.16,601.32,96.91,606.77,101.27Z"/><path class="cls-1" d="M748,2.18a2.1,2.1,0,0,1-.87,3.05c-1.75,1.3-2.62,3.48-4.36,4.79-1.31.87.22,1.09.22,2a10.19,10.19,0,0,1-5.67,1.09c-3.7-.22-10.18-.44-13.89-.44a62.89,62.89,0,0,0-11,.44c-2.4.22-8.83,1.09-9.49,3.27-2-.44-3.48-1.53-5.66-1.31,1.31,2.83.43,6.31,4.14,8.06.87.43.87,2,.87,3.05-.44,4.79.65,22.18,1.09,27,.65,6.53.43,16.91.43,23.44.22,9.8-.43,24.52,0,34.32.22,3.92.66,12.75,1.09,16.45.87,6.32.66,15.2.66,21.52,0,2.39-.44,6.29-.22,8.9.22,5.66-.87,16.46-.87,22.34-.22,3.92-2.62,9.75-3.27,13.67,0,.43,0,.65-.22.87-2,.87-4.14.65-6.1,1.74-.65.44-1.52,0-2.39-.43-1.31-.87-3.05-1.75-4.58-2.62a3.81,3.81,0,0,0-3.7.22c-3,1.74-7.4-1.52-7.19-5.23.22-5.44-.43-16.23-.65-21.68-.22-5,0-13.65,1.09-18.44.65-4.35,1.09-11.27-.22-15.63a36.86,36.86,0,0,1-.65-9.75c.43-3.7-.44-9.75-.44-13.24,0-7.84-.22-20.81-.22-28.65-.21-8.49-.43-33.66,1.09-41.93.66-3.27.22-6.76.22-10.24.22-2.61-.22-5.44.87-8.06.66-1.31,0-2.83-.22-4.35a3,3,0,0,0-2.39-2c-4.14-.22-16.19-.66-20.33,0-4.35.65-13.84.21-18.19.43a4.18,4.18,0,0,1-3.71-1.31,3.5,3.5,0,0,1,2-1.3c1.31-.44,2-.87,1.53-2.62-.22-1.3.65-2,2.18-2.39,3.92-1.09,13.4-.87,17.32-1.09,7.84-.44,22.94-2.18,30.35-3.27,9.36-1.09,26.2-3.27,35.79-2.61A160,160,0,0,0,742.77,0h2.4C746.69,0,747.34.87,748,2.18ZM681.55,15.25c-.87,1.3-.87,6.09.65,6.31l1.31.22c-.66-1.74.21-5.44-1.31-6.75C682.2,14.81,681.76,15,681.55,15.25Z"/><path class="cls-1" d="M765.35,26a1.84,1.84,0,0,0,1.53,0c9.15-1.52,19.79-1.31,28.94-2.83,2.4-.22,4.79-.87,7.19-.87,4.36-.22,9.15,3,11.32,7.62a59.85,59.85,0,0,1-15,2.4c-5-.22-11.09.84-16.1,1.06-4.57.22-9.14,1.53-13.72,1.74-1.3,0-2,.88-2.39,2.18a56.2,56.2,0,0,0-.63,20c.22,2.17,0,4.35,0,6.75-.44,9.36-.87,18.73,0,28.31,7.19-1.09,16.72.87,23.69-.22,3.48-.65,5.44,2.4,8.28,4.36-1.75,1.52-3.05,2.4-4.8,2.61a31.48,31.48,0,0,0-7.59,1.53c-5,1.74-11.52,2-17,2.18-2.83.21-2.83.21-2.61,3,.22,5.23.22,10.46,0,15.9-.22,5.67-1.09,11.55-.66,17.43a19.24,19.24,0,0,1-.65,6.1,44.48,44.48,0,0,0-1.09,16.11c.44,2.18,1.31,2.83,3.27,2.62,1.52,0,3-.66,4.79-.22a1.48,1.48,0,0,1,1.09,1.52c-2.4,2.18-6.75-.21-9.37,3,1.75.87,3,.22,4.36-.22,7.62-1.95,17.81-3,25.43-5.22,3.92-1.09,8.06-.44,12-1.31a3.91,3.91,0,0,1,3,.87c1.31,1.31,2.62,2.4,3.92,3.49-1.3,1.74-3.7.87-5.22,2-.44,1.3.87,2,1.3,3.05,1.09,1.52.65,2.83-1.3,2.83-3.49-.22-6.54,1.31-9.81,2.18a41.43,41.43,0,0,1-7.18,1.09c-6.76,0-15.85,0-22.39,1.3-1.74.44-3.26.44-3.7,3-.22,1.74-1.52,2-3,.65-1.74-1.3-3.27-.65-5-.43a141.34,141.34,0,0,1-25.48,1.74c-1.31,0-2.4-1.09-3.7-1.52a2.08,2.08,0,0,1-1.31-2.18c0-1.31.65-1.74,1.74-2,3.49-1.09,7-1.53,10.89-3.49,0-5-.22-10,0-15.24,1.31-16.12.44-31.37,1.74-47.48,1.09-15.68,1.53-31.58,2-47.27.22-7.84.85-18.24.85-25.86,0-2-.87-2.84-2.61-2.84-2.83,0-2.4-1.52-5.23-2A3.49,3.49,0,0,1,732,31.41c4.57-1.53,6.1-1.53,10.45-2.4a21.62,21.62,0,0,0,.44-3.48c0-2.18.22-3.92,3.05-3.49.22,0,.65,0,.65-.22,3.92-3.7,7.63-1.52,11.55-.21C761,22.69,763.61,23.35,765.35,26ZM741,173.8c3.49-.44,3.49-.44,3-2.83-.21-1.53.22-5.23-1.08-6.76C740.55,166.39,741.42,171.19,741,173.8Z"/><path class="cls-1" d="M863.1,26.15c6.32.44,12.85.44,18.29,4.14a36.76,36.76,0,0,0,10,5.23,10.9,10.9,0,0,1,5.88,6.53c2.62,6.54,5.23,13.07,4.58,20.48-.22,2.39,1.09,4.35,1.09,6.75.21,9.36-4.14,16.33-10.67,22.43-3,2.83-7,4.58-10.46,7a8.88,8.88,0,0,1-3.7,2.18c.22-2,2.39-2.4,2.39-4.36-2.83.66-4.57,2.62-6.53,4.36-.87.87.22,2.18,1.09,2.83,3,2.62,5.88,5.66,8.71,8.5,4.57,4.35,7.19,9.8,9.37,15.46,3.48,9.15,17,31.54,21.15,40.26a17.32,17.32,0,0,1,1.53,4.79c.87,3.26,3.46,8,5,11.08,1.09,1.74.66,3.27.44,5-.22,2-.66,3.05-2.83,3.27-.22,0-.66.65-.88,1.09-.87,1.3-2,1.52-3,.43-2.18-2-4.14-3.05-6.76-1.09a2.32,2.32,0,0,1-2.39,0c-3.49-2.17-7.63-3.92-9.59-7.84-.87-2-3.24-5-4.33-6.72-7-14.38-22.9-42.22-28.78-57a41.48,41.48,0,0,0-3-6.32c-2.83,1.53-4.79,3.49-4.13,7v1.74c-1.75,8.06,0,16.12,0,24.4.21,7.62.87,19.31-.22,26.93-.44,2,.43,4.57-3.27,4.14-.65-.22-1.09.65-1.09,1.31a18.51,18.51,0,0,0-.87,3.26c-3.27-1.3-5.44-3.92-8.28-6.31-2.61,2.61-5.66,3.26-8.71,1.3a10,10,0,0,1-5.44-8.93c-.22-3.48.87-6.75.65-10.23-.43-9.8-.43-23.67-.87-33.47a51.9,51.9,0,0,0-.65-5.66c-2.18-11.11-2.4-22.44-1.75-33.76.66-11.55.66-22.87,1.09-34.42.22-5.44.87-10.67.44-16.33,0-1.09.22-2.18-.44-3.27-2.39,0-4.57,1.53-7,1.31-.65-1.09,1.31-1.74.22-2.61-1.74-1.75-.65-2.62,1.09-3.27,7.84-2.61,15.9-3.92,24.39-2.83C850.9,25.72,857,25.72,863.1,26.15ZM853.52,98.9a9.61,9.61,0,0,0,2-1.09c7.18-7.19,14.59-13.94,20.47-22.21,3.92-5.67,5.23-12.2,6.32-18.74a6,6,0,0,0-.66-2.83,9.52,9.52,0,0,1-1.09-5.44,2.84,2.84,0,0,0-2-3.27,23.69,23.69,0,0,1-3-2c-3.92-3-7.62-6.53-13.06-8.06-3.27-.87-6.1-.65-9.59-.65C854.39,56,854.17,77.12,853.52,98.9Z"/><path class="cls-1" d="M921.81,155.5c-3.27,1.31-4.36-2.61-5.23-4.57C919.85,151.15,920.29,153.76,921.81,155.5Zm53.8-132.2c4.79,1.31,8.27,3.92,9.8,9.15l3.92,12.41c1.3,3.49,0,6.75-.44,10-.22,1.52-2.39,1.52-3.27,3-.87,2.18-2.39,4.14-3.48,6.31-1.31-.43-1.09-1.95-2-2.61-1.52.44-.65,2.4-2,3.05-.22.22-.44.22-.65-.22-3.49-4.57-5.45-9.58-4.36-15.46a17.91,17.91,0,0,0-.65-8.93c-1.09-4.14-6.75-9.15-10.68-7.62-2.17.65-4.35,1.74-6.53,2.61-2.4,1.09-3.7,3.48-4.79,5.66s-2,6.1-3.27,8.06c-2.18,2.4-2.18,8.71.44,10.67,6.53,5.45,10.89,12.64,15.9,19,3.92,5.23,8.71,9.37,13.5,13.51a73,73,0,0,1,10.67,12.41,31.81,31.81,0,0,0,4.14,5.23c5.23,5,5,12,7,18.51,1.31,4.57.87,9.37,1.09,14.16,0,2.18-.22,4.57-2.61,5.88-1.31.65-1.09,1.74-1.31,2.83a45.45,45.45,0,0,1-6.53,15.68c-1.31,2-3,3.7-5.45,3.92a4.59,4.59,0,0,0-2.4,1.53c-2.17,2.83-5.44,4.57-8.49,6.09-.87.44-1.74,1.09-2.61.66-2.62-1.09-4.79,0-7,1.09-6.54,3.7-17.43.87-26.79-4.79-.87-.66-13.72-12.86-14.16-13.51-4.57-6.31,7,5.23,2.61-1.52-.87-1.53-2-4.14-1.74-6.1,0-2.62-2.18-3.92-3.26-5.88-.44-.87-1.53-1.31-1.75-2.62.87-.65,3.05-1.74,4.36-.43,1.74,2,2.18.87,3.48,1.52,1.31.87,1.53,1.31,3.27,2.62,2.4,2,2.83,3.92,4.36,5.66,2.17,3.05,4.57,3.7,7.84,5.23,7.62,3,15.24,9.58,22,2.61,4.13-4.36,5-8.93,5-14.37a77.09,77.09,0,0,0-2.61-16.12,7.63,7.63,0,0,0-1.52-3.27c-8.28-11.54-15-21.34-25.49-30.49-5.44-4.36-12-12-13.94-18.73-.87-3.49-3-6.54-3.48-10A12.2,12.2,0,0,1,922,64c1.74-6.1,2.61-12.64,5-18.52,3.26-8.49,9.14-14.59,16.55-19.6A9.67,9.67,0,0,1,951,24.39c3.91.65,7.62-.87,11.54-1.31A43.74,43.74,0,0,1,975.61,23.3Zm-23.31,78c.65-.22-1.74-4.79-3.27-6.53-2.17-3-4.57-3.92-5-5.45-3-2-5.45-4.79-8.93-5.66C939,90.16,946.86,96.91,952.3,101.27Z"/><path class="cls-1" d="M23.33,8.93c.87.22.65,1.53.65,2.18a56.17,56.17,0,0,1-.43,8.49c-.87,8.72-.22,17.43,0,26.14,0,3.7-.66,7.41.21,10.89.22,1.52,0,3,1.53,4.14,2.83-8.28-.66-16.56.65-25.05,1.53-8.06-.22-16.55,1.09-25.48,3,2.39,2.4,5.23,2.18,7.62,0,5.66.22,11.33.22,17-.22,10,.21,19.82.21,29.84.22,9.8-.43,30.71,1.53,40.3a189.13,189.13,0,0,1,3.7,22.21c.44,6.75-.87,15.85-1.52,22.39a29.15,29.15,0,0,0-.44,4.35c-.22,2.4-.43,6.08-1.74,8.25a7.19,7.19,0,0,0-.22,7,.92.92,0,0,0,1.31-.65c1.09-2,1.09-2.18,2.83-.44a2.38,2.38,0,0,0,2,.66,39.31,39.31,0,0,0,8.72-.44c4.13-.65,4.64-.87,9-1.3,2.17,0,4.57-.22,6.53,1.08,1.09.66,2.4.44,3.7.44,1.09,0,2.18-.22,3.27.44s2.18,1.52.65,2.61c-1.09,1.09-1.52,1.74-.65,3.05a1,1,0,0,1-.44,1.74c-3,1.31-5.44,3.27-9.14,2.83-5.23-.43-6.83,1.31-12.27.87-5.88-.21-11.77.44-17.65.87-5.66.66-13.06.44-18.73,1.53-3.92.65-6.75-1.31-8.71-5.66,2.18-1.75,6.1.21,7.19-3.49-.22-1.09-1.31-1.52-2-2.39-1.53-2.18-3-4.14-3.27-7-.65-13.07,0-30-.87-42.84C1.77,110.21,2,90.35,1.55,79.46,1.33,67.91.68,54.45.46,42.91.24,33.76.89,24.4,0,15.25c-.21-2.18,1.09-2.83,2.62-2.83,3.48.43,5.88-2.4,9.14-2.62.66,0,1.09-.65,1.53-1.3C14.4,5.67,16.58,5.23,19.19,5,20.5,6.32,20.93,8.5,23.33,8.93ZM11.57,172c-.22.43,0,.65.43.65.87.22,1.09-.22,1.31-1.09-.22-.44,0-1.09-.87-1.09S11.78,171.34,11.57,172Z"/><path class="cls-1" d="M145.58,23.89c.87.22.65,1.53.65,2.18a56.17,56.17,0,0,1-.43,8.49c-.88,8.72-.22,17.43,0,26.14,0,3.7-.66,7.4.21,10.89.22,1.52,0,3,1.53,4.14,2.83-8.28-.66-16.56.65-25.05,1.53-8.06-.22-16.55,1.09-25.48,3.05,2.39,2.4,5.22,2.18,7.62,0,5.66.22,11.33.22,17-.22,10,.21,19.82.21,29.84.22,9.8-.43,19.6,1.53,29.18a189.64,189.64,0,0,1,3.7,22.22c.44,6.75-.87,13.28-1.52,19.82a29.15,29.15,0,0,0-.44,4.35c-.22,2.4-.43,4.8-1.74,7a7.19,7.19,0,0,0-.22,7,.92.92,0,0,0,1.31-.65c1.09-2,1.09-2.18,2.83-.44a2.38,2.38,0,0,0,2,.66,41.2,41.2,0,0,0,8.93-.44c4.14-.65,8.27-.87,12.63-1.3,2.18,0,4.58-.22,6.53,1.08,1.09.66,2.4.44,3.71.44,1.09,0,2.18-.22,3.26.44s2.18,1.52.66,2.61c-1.09,1.09-1.53,1.74-.66,3.05a1,1,0,0,1-.43,1.74c-3.05,1.31-5.45,3.27-9.15,2.83-5.23-.43-10.45,1.31-15.9.87-5.88-.21-12,.44-17.86.87-5.66.66-13.07.44-18.73,1.53-3.92.65-6.75-1.31-8.71-5.66,2.18-1.75,6.1.21,7.19-3.49-.22-1.09-1.31-1.52-2-2.39-1.53-2.18-3-4.14-3.27-7-.65-13.07,0-26.14-.87-39-.65-10.89-.44-21.78-.87-32.67-.22-11.54-.87-22.87-1.09-34.41-.22-9.15.43-18.52-.44-27.66-.22-2.18,1.09-2.83,2.62-2.83,3.48.43,5.88-2.4,9.14-2.62.66,0,1.09-.65,1.53-1.3,1.09-2.84,3.27-3.27,5.88-3.49C142.75,21.28,143.18,23.46,145.58,23.89ZM133.82,172c-.22.43,0,.65.43.65.87.22,1.09-.22,1.31-1.09-.22-.44,0-1.09-.87-1.09S134,171.34,133.82,172Z"/><path class="cls-1" d="M83.23,26.94c-.22,2,.65,2.61,2.39,4.14,4.57,4.14,5.88,8.06,1.09,12C84.53,44.58,83,47.63,79.52,47c-1.52-1.53-3.92-.22-5.88-1.09-7.19-3.7-8.27-9.37-3.26-16.34a13.77,13.77,0,0,1,9.36-5.44C82.35,23.89,83.23,24.54,83.23,26.94Zm5.66,66c.22.66.22,1.53.87,2,2.39-1.74,3-1.52,3,1.31a5.56,5.56,0,0,1-.22,3.27,13.39,13.39,0,0,0-.22,6.53c1.09,9.15.87,18.3,1.09,27.44.22,5.67.87,11.11,1.53,16.77.21,3.92.87,7.85,1.09,11.77.43,4.35-.66,7.62,3.48,5.88,4.57-2.18,5.44-2,11.33-6.1,2-1.31,6.09-4.57,8.27-5.23a12.11,12.11,0,0,0,3.27-2.18c2-1.52,4.14-3,7-.87a23.8,23.8,0,0,1-5.23,5.23c-3,2.4-4.79,3.7-7,7.19-1.09,2-2,2.17-3.92,2.39-1.31,0-2.83,1.74-3.92,2.62-1.31,1.09-2.83,1.3-3.92,2.39a15.69,15.69,0,0,1-2.4,2.83,12.72,12.72,0,0,1-3.92,1.75L95,179.18a6.89,6.89,0,0,1-3,.66c-.66,0-1.31-.22-2-.22-.87.43-1.31,1.3-2.18,1.52s-2.83-.43-3.92-1.09c-1.74-.87-4.36-1.09-6.32-2.83-1.09-.87-2.61-.65-3.48-1.3-3.27-3.49-3.49-7.85-4.14-12.2a116.08,116.08,0,0,1-.22-17.42c.22-7,.44-14.16,1.09-21.13a102.81,102.81,0,0,0,.65-18.3c-.43-4.35,1.09-8.71,0-13.28-.21-1.53,1.53-3,2.62-4.14a12.26,12.26,0,0,1,7.18-2.83C85.84,86.62,87.8,88.58,88.89,92.93Z"/><path class="cls-1" d="M176.15,50.48l-.44-1.11c-1.33.22-2.44,1.55-3.33,2a2.31,2.31,0,0,1,.22-2.67,46.32,46.32,0,0,0,3.78-8.43c.66-1.77-.23-3.32.88-4.87a2.51,2.51,0,0,0-1.11-3.78,2,2,0,0,1-.66-3.1l-1.34-4.23a3.27,3.27,0,0,0-1.77-2.65c-2.44-1.13-2.44-2.46-1.1-4.89.66-1.77,2.21-1.33,3.33-1.77a28.94,28.94,0,0,1,4-1.57c2.89-.44,5.76-1.11,8.43.22a11.31,11.31,0,0,1,5.33,6.88c1.33,4.45.22,8.67-1.34,12.66a8.54,8.54,0,0,0-.22,3.33c0,2.44-.22,5.09-2.21,6.66-2.45,2-4.23,4.87-6,8-1.1,2.21-3.33,1.55-5.11,2C174.61,53.8,176.6,51.36,176.15,50.48Z"/></g></svg>